<svg viewBox="0 0 20 20" fill="currenColor" xmlns="http://www.w3.org/2000/svg">
  <path d="M10.8588 7.02113C11.6873 7.02113 12.3588 6.34956 12.3588 5.52113C12.3588 4.69271 11.6873 4.02113 10.8588 4.02113C10.0304 4.02113 9.35883 4.69271 9.35883 5.52113C9.35883 6.34956 10.0304 7.02113 10.8588 7.02113Z" fill="currentColor"/>
  <path d="M6.85883 9.02113C7.68725 9.02113 8.35883 8.34956 8.35883 7.52113C8.35883 6.69271 7.68725 6.02113 6.85883 6.02113C6.0304 6.02113 5.35883 6.69271 5.35883 7.52113C5.35883 8.34956 6.0304 9.02113 6.85883 9.02113Z" fill="currentColor"/>
  <path d="M6.85883 14.0211C7.68725 14.0211 8.35883 13.3496 8.35883 12.5211C8.35883 11.6927 7.68725 11.0211 6.85883 11.0211C6.0304 11.0211 5.35883 11.6927 5.35883 12.5211C5.35883 13.3496 6.0304 14.0211 6.85883 14.0211Z" fill="currentColor"/>
  <path d="M10.8588 16.0211C11.6873 16.0211 12.3588 15.3496 12.3588 14.5211C12.3588 13.6927 11.6873 13.0211 10.8588 13.0211C10.0304 13.0211 9.35883 13.6927 9.35883 14.5211C9.35883 15.3496 10.0304 16.0211 10.8588 16.0211Z" fill="currentColor"/>
  <path d="M11.0029 18.7715C8.4082 18.7529 6.06837 17.8613 4.34082 16.2637C2.5791 14.6328 1.60938 12.4502 1.60938 10.1191C1.60938 7.78808 2.5791 5.60546 4.34082 3.9746C6.19238 2.25683 8.68262 1.27148 11.1709 1.27148C13.3281 1.27148 15.3145 2.00781 16.7647 3.34472C17.8135 4.31542 18.3906 5.61425 18.3906 7.0039C18.3906 8.39355 17.8135 9.69335 16.7656 10.6641L15.5615 11.7832C15.4756 11.8623 15.374 11.9902 15.374 12.1455C15.374 12.3018 15.4756 12.4297 15.5615 12.5098C15.708 12.6465 15.7422 12.6787 16.0781 12.7363C16.4922 12.8086 17.0283 12.9023 17.4512 13.3125L17.4522 13.3135C17.8477 13.6992 18.0781 14.292 18.0703 14.8994C18.0615 15.4883 17.8359 16.0176 17.4336 16.3887C15.8086 17.9023 13.4639 18.7715 11.0029 18.7715ZM11.1709 2.77147C9.05665 2.77147 6.93849 3.61131 5.36036 5.07518C3.90821 6.41991 3.10938 8.21092 3.10938 10.1191C3.10938 12.0273 3.90821 13.8184 5.36036 15.1621C6.79102 16.4873 8.82519 17.2559 10.9414 17.2715C13.0879 17.2715 15.0605 16.5488 16.4141 15.2891C16.5469 15.166 16.5684 14.9795 16.5703 14.8789C16.5732 14.6562 16.4873 14.4687 16.4063 14.3887C16.3145 14.3008 16.0537 14.2549 15.8438 14.2188C15.2334 14.1133 14.9209 13.9648 14.5381 13.6055C14.1104 13.208 13.874 12.6895 13.874 12.1455C13.874 11.6025 14.1104 11.084 14.5401 10.6846L15.7451 9.56348C16.4844 8.87989 16.8906 7.97071 16.8906 7.00391C16.8906 6.03711 16.4844 5.12989 15.7471 4.44727C14.5752 3.36719 12.9502 2.77147 11.1709 2.77147Z" fill="currentColor"/>
</svg>
